PathFileType	4	(X/Y/Z)	1H_nor_med_left.trc
DataRate	CameraRate	NumFrames	NumMarkers	Units	OrigDataRate	OrigDataStartFrame	OrigNumFrames
250.00	250.00	15	18	mm	250.00	1	7640
Frame#	Time	c7	r_should	l_should	clavicle	r_upa	r_elb_l	r_elb_m	r_low	r_wri_l	r_wri_m	r_met	l_upa	l_elb_l	l_elb_m	l_low	l_wri_l	l_wri_m	l_met
	X1	Y1	Z1	X2	Y2	Z2	X3	Y3	Z3	X4	Y4	Z4	X5	Y5	Z5	X6	Y6	Z6	X7	Y7	Z7	X8	Y8	Z8	X9	Y9	Z9	X10	Y10	Z10	X11	Y11	Z11	X12	Y12	Z12	X13	Y13	Z13	X14	Y14	Z14	X15	Y15	Z15	X16	Y16	Z16	X17	Y17	Z17	X18	Y18	Z18
1	0.00000	1247.35254	1419.89966	142.39862	1284.43262	1350.81128	310.25714	1292.63770	1353.60852	-30.64174	1360.78430	1282.05322	140.96915	1277.30981	1131.82068	356.94418	1270.73486	1041.83179	372.75214	1212.82190	1018.48950	294.75208	1286.18750	906.57574	370.43784	1300.80200	776.45349	358.71198	1226.10522	783.57343	369.54883	1289.89331	714.57648	405.04605	1291.57385	1139.47998	-84.83832	1301.23279	1031.46545	-101.86005	1244.72168	1019.02869	-14.67753	1305.68982	908.30554	-97.49335	1319.26331	788.56207	-72.31602	1243.10022	786.52106	-93.03056	1310.44287	713.00220	-120.27113
2	0.00400	1247.38647	1419.89893	142.39124	1284.44470	1350.81555	310.27173	1292.71570	1353.58838	-30.63153	1360.82715	1282.05994	141.00208	1277.31396	1131.83350	356.96616	1270.73987	1041.85059	372.77304	1212.81970	1018.50250	294.77621	1286.19287	906.58105	370.47067	1300.79248	776.46002	358.73645	1226.09546	783.58337	369.58743	1289.89136	714.59259	405.07889	1291.68237	1139.46277	-84.81215	1301.36914	1031.44434	-101.82676	1244.82471	1018.99597	-14.67947	1305.82214	908.27875	-97.43924	1319.38196	788.53162	-72.26223	1243.21729	786.50677	-93.04089	1310.58069	712.97791	-120.21673
3	0.00800	1247.42053	1419.90405	142.37798	1284.45422	1350.82861	310.28448	1292.79883	1353.56909	-30.61883	1360.86658	1282.06006	141.03899	1277.31812	1131.84717	356.99243	1270.74451	1041.87036	372.80600	1212.81848	1018.51843	294.79660	1286.19128	906.59406	370.49460	1300.78796	776.46973	358.76178	1226.08398	783.60461	369.62967	1289.88818	714.61017	405.10825	1291.79761	1139.44006	-84.78695	1301.50610	1031.42456	-101.78941	1244.91650	1018.97241	-14.67349	1305.95142	908.25165	-97.39967	1319.50964	788.50214	-72.20670	1243.33655	786.49719	-93.05982	1310.72131	712.95135	-120.16712
4	0.01200	1247.45752	1419.91040	142.36632	1284.46765	1350.84436	310.29175	1292.88013	1353.55310	-30.60953	1360.90967	1282.06287	141.08197	1277.31897	1131.85767	357.01276	1270.75183	1041.88489	372.82880	1212.81384	1018.53632	294.82111	1286.19360	906.60394	370.51926	1300.78528	776.48718	358.78860	1226.07361	783.62164	369.66901	1289.89050	714.62756	405.13269	1291.91748	1139.41614	-84.76183	1301.64563	1031.40320	-101.75253	1245.01843	1018.95129	-14.67162	1306.09106	908.22888	-97.37000	1319.63208	788.47528	-72.15093	1243.45618	786.48389	-93.06994	1310.86743	712.93109	-120.12240
5	0.01600	1247.49670	1419.91785	142.36122	1284.48425	1350.85852	310.29562	1292.96924	1353.53662	-30.59870	1360.95642	1282.07275	141.11075	1277.32153	1131.87866	357.04004	1270.18628	1042.28235	372.77576	1212.80750	1018.55505	294.84747	1286.19482	906.62158	370.53613	1300.78674	776.51318	358.81232	1226.06714	783.64270	369.71158	1289.89685	714.64227	405.15448	1292.04150	1139.39587	-84.74001	1301.78613	1031.38306	-101.71884	1245.11377	1018.92438	-14.67900	1306.23572	908.20844	-97.33540	1319.75671	788.45166	-72.10033	1243.58020	786.46887	-93.08029	1311.02112	712.91113	-120.07442
6	0.02000	1247.53601	1419.92126	142.35609	1284.49634	1350.87231	310.30103	1293.06201	1353.51978	-30.58809	1361.00745	1282.07886	141.13304	1277.33154	1131.89404	357.06125	1269.47351	1042.78540	372.70630	1212.80151	1018.57660	294.87671	1286.19336	906.63635	370.54150	1300.77930	776.52759	358.83087	1226.05750	783.66077	369.75168	1289.89893	714.66241	405.18011	1292.16577	1139.37500	-84.71978	1301.91931	1031.36841	-101.69755	1245.20679	1018.89600	-14.69288	1306.37524	908.19318	-97.31333	1319.88257	788.43787	-72.04762	1243.70410	786.45612	-93.09335	1311.17114	712.88953	-120.03123
7	0.02400	1247.57446	1419.92065	142.34900	1284.50903	1350.88696	310.30930	1293.15625	1353.50610	-30.57459	1361.05737	1282.07886	141.16255	1277.34094	1131.91309	357.08020	1270.45557	1042.16455	372.85440	1212.79675	1018.59698	294.90659	1286.19470	906.65637	370.56363	1300.78149	776.54968	358.84946	1226.05383	783.67004	369.77930	1289.90149	714.68591	405.20764	1292.29163	1139.35498	-84.70658	1302.05347	1031.34351	-101.67761	1245.29883	1018.87811	-14.70119	1306.50940	908.17352	-97.28893	1320.00244	788.42200	-72.00921	1243.83142	786.44305	-93.10658	1311.31909	712.86804	-119.98638
8	0.02800	1247.61243	1419.91846	142.34007	1284.52014	1350.89868	310.31461	1293.25220	1353.48462	-30.56505	1361.44104	1281.66968	141.49570	1277.34424	1131.93164	357.10156	1270.70203	1042.02454	372.91034	1212.79663	1018.61694	294.93588	1286.19214	906.67920	370.59082	1300.77820	776.57019	358.86700	1226.05029	783.67920	369.81253	1289.90076	714.70380	405.23135	1292.41736	1139.32739	-84.68858	1302.18982	1031.31702	-101.65735	1245.38733	1018.86377	-14.71285	1306.65137	908.15509	-97.26151	1320.23169	788.48932	-71.87301	1243.95801	786.42279	-93.11817	1311.47412	712.84265	-119.94017
9	0.03200	1247.65088	1419.91467	142.33211	1284.52942	1350.90417	310.32074	1293.34827	1353.45935	-30.55401	1362.24951	1280.74597	142.21466	1277.34570	1131.94666	357.12369	1270.77148	1042.00452	372.93951	1212.79785	1018.62549	294.96329	1286.18982	906.69867	370.61118	1300.76990	776.58038	358.89291	1226.04346	783.69104	369.84692	1289.90466	714.71619	405.25696	1292.54321	1139.29224	-84.66937	1302.32227	1031.29456	-101.63935	1245.47119	1018.83936	-14.72499	1306.79663	908.13763	-97.23182	1320.49280	788.58209	-71.69834	1244.08545	786.40515	-93.13628	1311.63147	712.81293	-119.88943
10	0.03600	1247.69092	1419.90918	142.32706	1284.54028	1350.91296	310.33389	1293.44299	1353.43738	-30.54320	1362.48755	1280.51501	142.41747	1277.35400	1131.96655	357.14905	1270.79517	1042.01611	372.96631	1212.80078	1018.63611	294.99426	1286.19629	906.71417	370.64160	1300.76367	776.58435	358.91641	1226.03503	783.69702	369.88354	1289.90466	714.73486	405.28909	1292.66711	1139.26184	-84.65820	1302.82373	1030.93567	-101.28297	1245.57092	1018.81018	-14.73540	1306.94202	908.12494	-97.20348	1320.53967	788.49792	-71.71024	1244.21484	786.38757	-93.14491	1311.79028	712.78357	-119.83165
11	0.04000	1247.72888	1419.90552	142.32079	1284.55115	1350.92627	310.34070	1293.53320	1353.41724	-30.53238	1362.58374	1280.46155	142.49644	1277.36401	1131.98730	357.17636	1270.79443	1042.03113	372.98834	1212.80188	1018.64612	295.02710	1286.18799	906.72742	370.65805	1300.75940	776.59576	358.94153	1226.02673	783.70844	369.93442	1289.89819	714.75238	405.32086	1292.79175	1139.23425	-84.63523	1303.78052	1030.15979	-100.50947	1245.67114	1018.77747	-14.73500	1307.08435	908.11841	-97.17165	1320.87097	788.62378	-71.46141	1244.33508	786.36108	-93.15263	1311.95105	712.75189	-119.76978
12	0.04400	1247.76404	1419.90381	142.31873	1284.56445	1350.94031	310.34695	1293.62463	1353.39661	-30.52086	1362.64197	1280.44568	142.54230	1277.37036	1132.00635	357.19711	1270.79761	1042.04871	373.02029	1212.79932	1018.65985	295.05795	1286.17725	906.74408	370.68167	1300.75464	776.61060	358.97644	1226.02612	783.73157	369.99487	1289.89453	714.76453	405.35406	1292.92261	1139.20874	-84.60744	1304.12842	1029.94824	-100.29240	1245.76807	1018.75470	-14.73859	1307.23230	908.09637	-97.12619	1321.04858	788.63623	-71.35794	1244.46436	786.34875	-93.16260	1312.11108	712.72461	-119.71407
13	0.04800	1247.80225	1419.90479	142.32013	1284.58008	1350.95471	310.35550	1293.71375	1353.38000	-30.50862	1362.69141	1280.43494	142.58328	1277.37683	1132.02051	357.22482	1270.80652	1042.06567	373.06122	1212.80408	1018.67804	295.10217	1286.17017	906.75745	370.71103	1300.75427	776.62585	359.00854	1226.02246	783.74408	370.03839	1289.89893	714.77856	405.39038	1293.05737	1139.18713	-84.58336	1304.32007	1029.88269	-100.21653	1245.88013	1018.72614	-14.74002	1307.38403	908.07294	-97.08112	1321.19153	788.60950	-71.28426	1244.60217	786.34064	-93.15930	1312.27161	712.70148	-119.65907
14	0.05200	1247.84424	1419.90564	142.32036	1284.59546	1350.96765	310.36136	1293.80457	1353.35803	-30.49886	1362.74182	1280.42346	142.61745	1277.37976	1132.03479	357.24951	1270.81824	1042.07825	373.08795	1212.80908	1018.70013	295.14056	1286.16187	906.75983	370.72858	1300.75647	776.63409	359.03467	1226.01855	783.75812	370.08322	1289.90723	714.79663	405.42566	1293.19128	1139.16248	-84.55927	1304.48657	1029.84875	-100.16785	1246.00342	1018.70288	-14.74395	1307.53735	908.05145	-97.03075	1321.33948	788.58374	-71.20991	1244.73743	786.33582	-93.16595	1312.43518	712.67578	-119.59949
15	0.05600	1247.88330	1419.90918	142.31184	1284.61414	1350.97864	310.37000	1293.89502	1353.33496	-30.48894	1362.78394	1280.41650	142.64870	1277.38525	1132.03979	357.26581	1270.82727	1042.09558	373.11710	1212.80872	1018.72601	295.17947	1286.16553	906.75305	370.74756	1300.74670	776.64807	359.06296	1226.01819	783.78070	370.12640	1289.91870	714.81238	405.46054	1293.32739	1139.14392	-84.53352	1304.64368	1029.82629	-100.12502	1246.11560	1018.68427	-14.73957	1307.69482	908.02411	-96.98502	1321.48340	788.55719	-71.15036	1244.87854	786.32697	-93.18045	1312.59875	712.65686	-119.53923
